<?xml version="1.0" encoding="UTF-8"?>
<svg width="788px" height="185px" viewBox="0 0 788 185" version="1.1" xmlns="http://www.w3.org/2000/svg" xmlns:xlink="http://www.w3.org/1999/xlink">
    <!-- Generator: Sketch 47.1 (45422) - http://www.bohemiancoding.com/sketch -->
    <title>logo</title>
    <desc>Created with Sketch.</desc>
    <defs></defs>
    <g id="Page-1" stroke="none" stroke-width="1" fill="none" fill-rule="evenodd">
        <g id="logo" fill-rule="nonzero" fill="#0081BA">
            <g transform="translate(13.000000, 10.000000)" id="Shape">
                <path d="M132.5,74.5 L134.1,58.8 C133.8,51.6 132.1,45.1 129,39.1 L120.8,50.5 C121.9,54.3 122.4,58.4 122.1,62.7 C120.5,82.3 102.7,98.2 82.3,98.2 C77.5,98.2 73,97.3 68.9,95.7 L118.1,44.3 L138.9,23.2 L124.1,31 C114.3,18.6 98.5,11.3 80.4,12 C49.3,13.2 22.8,38.6 21.3,68.6 C19.8,98.6 43.8,121.9 75,120.7 C102.4,119.6 126.2,99.8 132.5,74.5 Z M188.5,86.9 C189.3,78.5 188.6,72.4 186.4,68.6 C184.2,64.8 180.4,62.9 174.9,62.9 C172.5,62.9 170,63.3 167.6,64.1 C165.2,64.9 162.7,66 160.3,67.6 L156,111.1 C157.4,111.7 158.9,112.2 160.6,112.4 C162.3,112.7 164.4,112.8 166.7,112.8 C173.3,112.8 178.4,110.7 182,106.4 C185.4,102 187.6,95.6 188.5,86.9 Z M249.2,132.5 C238.2,132.5 230.4,130.2 225.9,125.7 C221.4,121.2 219.6,113.8 220.7,103.5 L224.7,63.1 L214.9,63.1 C216.6,69.6 217,77.4 216.1,86.3 C214.7,100.1 210.1,111.2 202.2,119.7 C194.4,128.2 185.3,132.4 175.1,132.4 C170.8,132.4 167.1,131.9 164,130.9 C160.9,129.9 157.7,128.4 154.3,126.4 L150.7,162.4 L123.8,162.4 L128.7,113.6 C114.3,132.9 91.6,145.5 66.9,145.5 C27.4,145.5 -2,113.1 1.2,73.1 C4.4,33.1 39,0.7 78.4,0.7 C98.4,0.7 115.8,9 127.7,22.4 L150.4,13.7 L137,36.3 C138.3,38.9 139.5,41.6 140.5,44.4 L162.5,44.4 L161.6,53.4 C165.9,50 170.2,47.3 174.5,45.2 C178.8,43.1 183.7,42 189.1,42 C193.6,42 197.5,42.8 200.9,44.4 L226.6,44.4 L229.1,19.7 L256,19.7 L253.5,44.4 L279.4,44.4 L277.5,63.2 L251.6,63.2 L248.5,93.8 C248.2,96.8 248,99.5 247.8,101.7 C247.6,104 247.8,106 248.4,107.8 C248.9,109.6 250.1,111 251.7,112.1 C253.4,113.1 256.1,113.6 259.5,113.6 C260.9,113.6 262.8,113.3 265.2,112.7 C267.6,112.1 269.3,111.5 270.3,111 L272.6,111 L270.7,130 C267.7,130.8 264.5,131.4 261.2,131.8 C258,132.3 254,132.5 249.2,132.5 Z M48.1,62.7 C49.7,43.1 67.5,27.2 87.9,27.2 C98.1,27.2 107.1,31.2 113.2,37.6 L52.7,82.3 C49.3,76.8 47.6,70 48.1,62.7 Z M303.6,130.8 L276.7,130.8 L285.3,44.4 L312.2,44.4 L303.6,130.8 Z M314.2,32.1 L285.7,32.1 L287.8,11.1 L316.3,11.1 L314.2,32.1 Z M413,130.8 L417.3,87.6 C417.7,83.3 418,79.8 418.1,76.8 C418.2,73.9 418,71.5 417.4,69.6 C416.8,67.8 415.7,66.4 414.2,65.6 C412.7,64.7 410.5,64.3 407.6,64.3 C405.5,64.3 403.5,64.8 401.4,65.7 C399.3,66.6 397,67.8 394.5,69.5 L388.4,130.7 L361.3,130.7 L365.6,87.5 C366,83.3 366.3,79.7 366.4,76.8 C366.5,73.8 366.3,71.4 365.7,69.6 C365.1,67.8 364,66.4 362.5,65.6 C361,64.7 358.8,64.3 355.9,64.3 C353.7,64.3 351.5,64.8 349.3,65.8 C347.1,66.8 344.9,68 342.8,69.4 L336.7,130.6 L309.8,130.6 L318.4,44.2 L345.3,44.2 L344.3,53.7 C349.1,50 353.5,47 357.6,44.9 C361.7,42.8 366.2,41.7 371.1,41.7 C376.4,41.7 380.9,43 384.7,45.5 C388.5,48 391.1,51.8 392.7,56.7 C398.4,51.9 403.6,48.2 408.4,45.6 C413.3,43 418.1,41.7 422.8,41.7 C426.8,41.7 430.3,42.3 433.4,43.6 C436.4,44.9 439,46.8 440.9,49.4 C443,52.2 444.5,55.5 445.3,59.3 C446.2,63.1 446.3,68.1 445.7,74.2 L440.1,130.4 L413,130.8 L413,130.8 Z M483.2,32.1 L454.7,32.1 L456.8,11.1 L485.3,11.1 L483.2,32.1 Z M553.1,110.2 C549.9,103.5 548.8,95.4 549.8,85.8 C551.2,71.7 556.4,60.4 565.3,52 C574.2,43.6 586,39.4 600.6,39.4 C613.8,39.4 623.4,43 629.4,50.1 C635.4,57.2 637.7,67.4 636.3,80.7 L635.3,90.4 L576.3,90.4 C576.2,94.4 576.7,97.8 577.8,100.5 C579,103.2 580.7,105.3 582.9,106.9 C585,108.5 587.6,109.6 590.6,110.4 C593.6,111.1 596.9,111.4 600.6,111.4 C603.7,111.4 606.8,111.1 609.9,110.4 C613,109.7 615.9,108.8 618.5,107.6 C620.8,106.6 622.9,105.6 624.9,104.4 C626.9,103.3 628.5,102.3 629.8,101.4 L632.6,101.4 L630.4,123.6 C628.1,124.5 626,125.3 624.1,126.1 C622.2,126.8 619.7,127.6 616.4,128.3 C613.4,129.1 610.3,129.7 607.1,130.1 C604.8,130.4 602,130.7 598.9,130.8 L472.4,130.9 L469.6,130.9 L445.4,130.9 L454,44.5 L480.9,44.5 L474.4,109.9 L517.4,64.8 L485.3,64.9 L487.6,45.1 L552.8,44.6 L551.1,62.1 L504.9,110.4 L553.1,110.4 L553.1,110.2 Z M610.4,74.1 C610.8,68.4 609.9,64.1 607.7,61.1 C605.5,58.1 601.9,56.6 596.8,56.6 C591.6,56.6 587.3,58.2 584,61.3 C580.8,64.4 578.7,68.7 577.9,74.1 L610.4,74.1 L610.4,74.1 Z M755.6,42.1 L700.2,160.2 L671.3,160.2 L687.8,126.4 L669.4,59.9 L662.5,128.5 L635.6,128.5 L647.6,8.8 L674.5,8.8 L671.2,42.1 L692.8,42.1 L705.5,96.3 L727.9,42.1 L755.6,42.1 L755.6,42.1 Z"></path>
            </g>
        </g>
    </g>
</svg>